<mxfile host="65bd71144e">
    <diagram id="aEsMolW45D4i5y-Y3ErU" name="Page-1">
        <mxGraphModel dx="746" dy="434" grid="1" gridSize="10" guides="1" tooltips="1" connect="1" arrows="1" fold="1" page="1" pageScale="1" pageWidth="827" pageHeight="1169" math="0" shadow="0">
            <root>
                <mxCell id="0"/>
                <mxCell id="1" parent="0"/>
                <mxCell id="2" value="1.codice su vs&lt;br&gt;" style="text;html=1;strokeColor=none;fillColor=none;align=center;verticalAlign=middle;whiteSpace=wrap;rounded=0;" vertex="1" parent="1">
                    <mxGeometry x="90" y="40" width="130" height="30" as="geometry"/>
                </mxCell>
                <mxCell id="3" value="2. salvo con commit - in locale" style="text;html=1;strokeColor=none;fillColor=none;align=center;verticalAlign=middle;whiteSpace=wrap;rounded=0;" vertex="1" parent="1">
                    <mxGeometry x="100" y="80" width="140" height="30" as="geometry"/>
                </mxCell>
                <mxCell id="5" value="github" style="ellipse;whiteSpace=wrap;html=1;" vertex="1" parent="1">
                    <mxGeometry x="294" y="290" width="120" height="80" as="geometry"/>
                </mxCell>
                <mxCell id="6" value="4. push su repository remoto" style="text;html=1;strokeColor=none;fillColor=none;align=center;verticalAlign=middle;whiteSpace=wrap;rounded=0;" vertex="1" parent="1">
                    <mxGeometry x="115" y="160" width="115" height="30" as="geometry"/>
                </mxCell>
                <mxCell id="7" value="3.fetch e pull" style="text;html=1;strokeColor=none;fillColor=none;align=center;verticalAlign=middle;whiteSpace=wrap;rounded=0;" vertex="1" parent="1">
                    <mxGeometry x="110" y="110" width="110" height="30" as="geometry"/>
                </mxCell>
                <mxCell id="8" value="" style="shape=flexArrow;endArrow=classic;html=1;exitX=0.5;exitY=1;exitDx=0;exitDy=0;entryX=0;entryY=0.5;entryDx=0;entryDy=0;" edge="1" parent="1" source="6" target="5">
                    <mxGeometry width="50" height="50" relative="1" as="geometry">
                        <mxPoint x="350" y="200" as="sourcePoint"/>
                        <mxPoint x="290" y="330" as="targetPoint"/>
                    </mxGeometry>
                </mxCell>
                <mxCell id="9" value="Docente" style="text;html=1;strokeColor=none;fillColor=none;align=center;verticalAlign=middle;whiteSpace=wrap;rounded=0;" vertex="1" parent="1">
                    <mxGeometry x="125" y="10" width="60" height="30" as="geometry"/>
                </mxCell>
                <mxCell id="10" value="Studente" style="text;html=1;strokeColor=none;fillColor=none;align=center;verticalAlign=middle;whiteSpace=wrap;rounded=0;" vertex="1" parent="1">
                    <mxGeometry x="450" y="10" width="60" height="30" as="geometry"/>
                </mxCell>
                <mxCell id="11" value="1.fetch!" style="text;html=1;strokeColor=none;fillColor=none;align=center;verticalAlign=middle;whiteSpace=wrap;rounded=0;" vertex="1" parent="1">
                    <mxGeometry x="425" y="40" width="110" height="30" as="geometry"/>
                </mxCell>
                <mxCell id="12" value="2.pull" style="text;html=1;strokeColor=none;fillColor=none;align=center;verticalAlign=middle;whiteSpace=wrap;rounded=0;" vertex="1" parent="1">
                    <mxGeometry x="450" y="70" width="60" height="30" as="geometry"/>
                </mxCell>
                <mxCell id="13" value="" style="shape=flexArrow;endArrow=classic;html=1;exitX=1;exitY=0;exitDx=0;exitDy=0;entryX=0.5;entryY=1;entryDx=0;entryDy=0;" edge="1" parent="1" source="5" target="12">
                    <mxGeometry width="50" height="50" relative="1" as="geometry">
                        <mxPoint x="425" y="274.14" as="sourcePoint"/>
                        <mxPoint x="564.073593128807" y="385.8557287525381" as="targetPoint"/>
                    </mxGeometry>
                </mxCell>
                <mxCell id="19" value="1.codice su vs&lt;br&gt;" style="text;html=1;strokeColor=none;fillColor=none;align=center;verticalAlign=middle;whiteSpace=wrap;rounded=0;" vertex="1" parent="1">
                    <mxGeometry x="253" y="40" width="130" height="30" as="geometry"/>
                </mxCell>
                <mxCell id="20" value="2. salvo con commit - in locale" style="text;html=1;strokeColor=none;fillColor=none;align=center;verticalAlign=middle;whiteSpace=wrap;rounded=0;" vertex="1" parent="1">
                    <mxGeometry x="262" y="90" width="140" height="30" as="geometry"/>
                </mxCell>
                <mxCell id="21" value="4. push su repository remoto" style="text;html=1;strokeColor=none;fillColor=none;align=center;verticalAlign=middle;whiteSpace=wrap;rounded=0;" vertex="1" parent="1">
                    <mxGeometry x="277" y="170" width="115" height="30" as="geometry"/>
                </mxCell>
                <mxCell id="22" value="3.fetch e pull" style="text;html=1;strokeColor=none;fillColor=none;align=center;verticalAlign=middle;whiteSpace=wrap;rounded=0;" vertex="1" parent="1">
                    <mxGeometry x="273" y="130" width="110" height="30" as="geometry"/>
                </mxCell>
                <mxCell id="23" value="Collaboratore" style="text;html=1;strokeColor=none;fillColor=none;align=center;verticalAlign=middle;whiteSpace=wrap;rounded=0;" vertex="1" parent="1">
                    <mxGeometry x="288" y="10" width="60" height="30" as="geometry"/>
                </mxCell>
                <mxCell id="24" value="" style="shape=flexArrow;endArrow=classic;startArrow=classic;html=1;" edge="1" parent="1" source="5" target="21">
                    <mxGeometry width="100" height="100" relative="1" as="geometry">
                        <mxPoint x="310" y="290" as="sourcePoint"/>
                        <mxPoint x="410" y="190" as="targetPoint"/>
                    </mxGeometry>
                </mxCell>
                <mxCell id="25" value="" style="shape=flexArrow;endArrow=classic;startArrow=classic;html=1;entryX=1;entryY=1;entryDx=0;entryDy=0;" edge="1" parent="1" target="6">
                    <mxGeometry width="100" height="100" relative="1" as="geometry">
                        <mxPoint x="325.7889957867055" y="300.1511442512783" as="sourcePoint"/>
                        <mxPoint x="313.51724137931024" y="210" as="targetPoint"/>
                    </mxGeometry>
                </mxCell>
            </root>
        </mxGraphModel>
    </diagram>
</mxfile>